# xmcd CD database file
#
# Track frame offsets:
#	150
#	11667
#	27545
#	63222
#	77205
#	99002
#	116830
#	148462
#	164950
#	176325
#	188355
#	202697
#	214432
#
# Disc length: 3010 seconds
#
# Revision: 7
# Processed by: cddbd v1.5.2PL0 Copyright (c) Steve Scherf et al.
# Submitted via: CDex 1.51
#
DISCID=b50bc00d
DTITLE=The Holmes Brothers - Jubilation
DYEAR=1991
DGENRE=Gospel
TTITLE0=Jesus Is Alright
TTITLE1=I Had My Chance
TTITLE2=Amazing Grace
TTITLE3=I'll Fly Away
TTITLE4=I Want Jesus To Walk With Me
TTITLE5=Pass Me Not Oh Gentle Saviour
TTITLE6=Will The Circle Be Unbroken
TTITLE7=Just A Closer Walk With Thee
TTITLE8=All Night, All Day
TTITLE9=Do Lord
TTITLE10=Oh How I Love Jesus
TTITLE11=The Power Of The Lord Come Down
TTITLE12=A Brother's Prayer
EXTD=YEAR: 1991
EXTT0=
EXTT1=
EXTT2=
EXTT3=
EXTT4=
EXTT5=
EXTT6=
EXTT7=
EXTT8=
EXTT9=
EXTT10=
EXTT11=
EXTT12=
PLAYORDER=
